<mxfile host="app.diagrams.net" agent="Mozilla/5.0 (Windows NT 10.0; Win64; x64; rv:136.0) Gecko/20100101 Firefox/136.0" version="26.1.1">
  <diagram name="Page-1" id="cTZarmaam4ZYwsiAd2wJ">
    <mxGraphModel dx="1050" dy="558" grid="1" gridSize="10" guides="1" tooltips="1" connect="1" arrows="1" fold="1" page="1" pageScale="1" pageWidth="827" pageHeight="1169" math="0" shadow="0">
      <root>
        <mxCell id="0" />
        <mxCell id="1" parent="0" />
        <mxCell id="Y29DFjEDWoC3BsO_ZlXo-1" value="" style="rounded=0;whiteSpace=wrap;html=1;" parent="1" vertex="1">
          <mxGeometry x="210" y="10" width="360" height="620" as="geometry" />
        </mxCell>
        <mxCell id="Y29DFjEDWoC3BsO_ZlXo-2" value="&lt;div&gt;user management subsystem&lt;/div&gt;" style="text;html=1;align=center;verticalAlign=middle;whiteSpace=wrap;rounded=0;" parent="1" vertex="1">
          <mxGeometry x="360" y="20" width="60" height="30" as="geometry" />
        </mxCell>
        <mxCell id="Y29DFjEDWoC3BsO_ZlXo-9" style="edgeStyle=orthogonalEdgeStyle;rounded=0;orthogonalLoop=1;jettySize=auto;html=1;entryX=0;entryY=0.5;entryDx=0;entryDy=0;endArrow=none;startFill=0;" parent="1" source="Y29DFjEDWoC3BsO_ZlXo-3" target="Y29DFjEDWoC3BsO_ZlXo-4" edge="1">
          <mxGeometry relative="1" as="geometry">
            <mxPoint x="150" y="150" as="targetPoint" />
            <Array as="points">
              <mxPoint x="200" y="190" />
              <mxPoint x="200" y="105" />
            </Array>
          </mxGeometry>
        </mxCell>
        <mxCell id="Y29DFjEDWoC3BsO_ZlXo-10" style="edgeStyle=orthogonalEdgeStyle;rounded=0;orthogonalLoop=1;jettySize=auto;html=1;endArrow=none;startFill=0;" parent="1" source="Y29DFjEDWoC3BsO_ZlXo-3" target="Y29DFjEDWoC3BsO_ZlXo-5" edge="1">
          <mxGeometry relative="1" as="geometry">
            <Array as="points">
              <mxPoint x="200" y="200" />
              <mxPoint x="200" y="205" />
            </Array>
          </mxGeometry>
        </mxCell>
        <mxCell id="Y29DFjEDWoC3BsO_ZlXo-22" style="edgeStyle=orthogonalEdgeStyle;rounded=0;orthogonalLoop=1;jettySize=auto;html=1;entryX=0;entryY=0.5;entryDx=0;entryDy=0;endArrow=none;startFill=0;" parent="1" source="Y29DFjEDWoC3BsO_ZlXo-3" target="Y29DFjEDWoC3BsO_ZlXo-6" edge="1">
          <mxGeometry relative="1" as="geometry">
            <Array as="points">
              <mxPoint x="205" y="210" />
              <mxPoint x="205" y="315" />
            </Array>
          </mxGeometry>
        </mxCell>
        <mxCell id="Y29DFjEDWoC3BsO_ZlXo-23" style="edgeStyle=orthogonalEdgeStyle;rounded=0;orthogonalLoop=1;jettySize=auto;html=1;entryX=0;entryY=0.5;entryDx=0;entryDy=0;endArrow=none;startFill=0;" parent="1" source="Y29DFjEDWoC3BsO_ZlXo-3" target="Y29DFjEDWoC3BsO_ZlXo-7" edge="1">
          <mxGeometry relative="1" as="geometry">
            <Array as="points">
              <mxPoint x="190" y="220" />
              <mxPoint x="190" y="405" />
            </Array>
          </mxGeometry>
        </mxCell>
        <mxCell id="Y29DFjEDWoC3BsO_ZlXo-3" value="User" style="shape=umlActor;verticalLabelPosition=bottom;verticalAlign=top;html=1;outlineConnect=0;" parent="1" vertex="1">
          <mxGeometry x="60" y="190" width="30" height="60" as="geometry" />
        </mxCell>
        <mxCell id="Y29DFjEDWoC3BsO_ZlXo-4" value="register new account" style="ellipse;whiteSpace=wrap;html=1;" parent="1" vertex="1">
          <mxGeometry x="320" y="70" width="140" height="70" as="geometry" />
        </mxCell>
        <mxCell id="Y29DFjEDWoC3BsO_ZlXo-11" value="" style="edgeStyle=orthogonalEdgeStyle;rounded=0;orthogonalLoop=1;jettySize=auto;html=1;endArrow=open;endFill=0;dashed=1;" parent="1" source="Y29DFjEDWoC3BsO_ZlXo-5" target="Y29DFjEDWoC3BsO_ZlXo-4" edge="1">
          <mxGeometry relative="1" as="geometry" />
        </mxCell>
        <mxCell id="Y29DFjEDWoC3BsO_ZlXo-12" value="&amp;lt;&amp;lt;include&amp;gt;&amp;gt;" style="edgeLabel;html=1;align=center;verticalAlign=middle;resizable=0;points=[];" parent="Y29DFjEDWoC3BsO_ZlXo-11" vertex="1" connectable="0">
          <mxGeometry x="0.28" relative="1" as="geometry">
            <mxPoint as="offset" />
          </mxGeometry>
        </mxCell>
        <mxCell id="Y29DFjEDWoC3BsO_ZlXo-5" value="login to account" style="ellipse;whiteSpace=wrap;html=1;" parent="1" vertex="1">
          <mxGeometry x="320" y="170" width="140" height="70" as="geometry" />
        </mxCell>
        <mxCell id="Y29DFjEDWoC3BsO_ZlXo-13" value="" style="edgeStyle=orthogonalEdgeStyle;rounded=0;orthogonalLoop=1;jettySize=auto;html=1;endArrow=open;endFill=0;dashed=1;" parent="1" source="Y29DFjEDWoC3BsO_ZlXo-6" target="Y29DFjEDWoC3BsO_ZlXo-5" edge="1">
          <mxGeometry relative="1" as="geometry" />
        </mxCell>
        <mxCell id="Y29DFjEDWoC3BsO_ZlXo-14" value="&amp;lt;&amp;lt;include&amp;gt;&amp;gt;" style="edgeLabel;html=1;align=center;verticalAlign=middle;resizable=0;points=[];" parent="Y29DFjEDWoC3BsO_ZlXo-13" vertex="1" connectable="0">
          <mxGeometry x="0.36" relative="1" as="geometry">
            <mxPoint as="offset" />
          </mxGeometry>
        </mxCell>
        <mxCell id="Y29DFjEDWoC3BsO_ZlXo-6" value="deactivate account" style="ellipse;whiteSpace=wrap;html=1;" parent="1" vertex="1">
          <mxGeometry x="320" y="280" width="140" height="70" as="geometry" />
        </mxCell>
        <mxCell id="Y29DFjEDWoC3BsO_ZlXo-7" value="update account details" style="ellipse;whiteSpace=wrap;html=1;" parent="1" vertex="1">
          <mxGeometry x="320" y="370" width="140" height="70" as="geometry" />
        </mxCell>
        <mxCell id="Y29DFjEDWoC3BsO_ZlXo-27" style="edgeStyle=orthogonalEdgeStyle;rounded=0;orthogonalLoop=1;jettySize=auto;html=1;endArrow=none;startFill=0;" parent="1" source="Y29DFjEDWoC3BsO_ZlXo-20" target="Y29DFjEDWoC3BsO_ZlXo-25" edge="1">
          <mxGeometry relative="1" as="geometry" />
        </mxCell>
        <mxCell id="Y29DFjEDWoC3BsO_ZlXo-20" value="Authority" style="shape=umlActor;verticalLabelPosition=bottom;verticalAlign=top;html=1;outlineConnect=0;" parent="1" vertex="1">
          <mxGeometry x="60" y="480" width="30" height="60" as="geometry" />
        </mxCell>
        <mxCell id="Y29DFjEDWoC3BsO_ZlXo-21" value="" style="endArrow=block;startArrow=none;endFill=0;startFill=0;endSize=8;html=1;verticalAlign=bottom;labelBackgroundColor=none;rounded=0;exitX=0.5;exitY=0;exitDx=0;exitDy=0;exitPerimeter=0;" parent="1" source="Y29DFjEDWoC3BsO_ZlXo-20" edge="1">
          <mxGeometry width="160" relative="1" as="geometry">
            <mxPoint x="10" y="360" as="sourcePoint" />
            <mxPoint x="75" y="280" as="targetPoint" />
          </mxGeometry>
        </mxCell>
        <mxCell id="Y29DFjEDWoC3BsO_ZlXo-25" value="add new authority" style="ellipse;whiteSpace=wrap;html=1;" parent="1" vertex="1">
          <mxGeometry x="320" y="480" width="140" height="70" as="geometry" />
        </mxCell>
      </root>
    </mxGraphModel>
  </diagram>
</mxfile>
